<?xml version="1.0" encoding="UTF-8" standalone="no"?>
<!DOCTYPE svg PUBLIC "-//W3C//DTD SVG 1.1//EN" "http://www.w3.org/Graphics/SVG/1.1/DTD/svg11.dtd">
<svg width="100%" height="100%" viewBox="0 0 1067 1067" version="1.1"
    xmlns="http://www.w3.org/2000/svg" xmlns:xlink="http://www.w3.org/1999/xlink"
    xml:space="preserve" xmlns:serif="http://www.serif.com/"
    style="fill-rule:evenodd;clip-rule:evenodd;stroke-linejoin:round;stroke-miterlimit:2;"><path d="M533.333,0.027c-294.523,0 -533.333,244.762 -533.333,546.905c-0,241.665 152.857,446.429 364.762,518.811c26.668,5 36.427,-11.906 36.427,-26.432c-0,-13.094 -0.474,-47.379 -0.715,-93.092c-148.331,33.093 -179.76,-73.334 -179.76,-73.334c-24.286,-63.097 -59.285,-80.003 -59.285,-80.003c-48.334,-34.043 3.571,-33.329 3.571,-33.329c53.571,3.808 81.667,56.427 81.667,56.427c47.619,83.57 124.761,59.521 155.236,45.477c4.763,-35.24 18.571,-59.526 33.812,-73.097c-118.334,-13.807 -242.858,-60.713 -242.858,-270.235c-0,-59.763 20.714,-108.574 54.762,-146.669c-5.476,-13.81 -23.81,-69.524 5.238,-144.762c0,-0 44.762,-14.762 146.666,55.952c42.62,-12.143 88.097,-18.095 133.574,-18.333c45.235,0.238 90.949,6.19 133.569,18.333c101.904,-70.714 146.43,-55.952 146.43,-55.952c29.048,75.238 10.714,130.952 5.236,144.762c34.049,38.331 54.763,87.143 54.763,146.669c-0,209.995 -124.761,256.186 -243.572,269.758c19.049,16.905 36.192,50.24 36.192,101.189c-0,73.097 -0.715,132.145 -0.715,150.002c0,14.522 9.522,31.669 36.665,26.192c212.384,-72.142 365.002,-276.906 365.002,-518.334c-0,-302.143 -238.808,-546.905 -533.334,-546.905Z" style="fill:#151313;"/></svg>