<?xml version="1.0" encoding="UTF-8" standalone="no"?>
<!DOCTYPE svg PUBLIC "-//W3C//DTD SVG 1.1//EN" "http://www.w3.org/Graphics/SVG/1.1/DTD/svg11.dtd">
<svg width="100%" height="100%" viewBox="0 0 1067 1067" version="1.1"
    xmlns="http://www.w3.org/2000/svg" xmlns:xlink="http://www.w3.org/1999/xlink"
    xml:space="preserve" xmlns:serif="http://www.serif.com/"
    style="fill-rule:evenodd;clip-rule:evenodd;stroke-linejoin:round;stroke-miterlimit:2;">
<path d="M984.948,0l-903.293,0c-43.235,0 -78.299,34.227 -78.299,76.411l0,913.869c0,42.16 35.064,76.387 78.299,76.387l903.293,-0c43.299,-0 78.363,-34.246 78.363,-76.387l-0,-913.869c-0,-42.205 -35.083,-76.411 -78.363,-76.411Zm-660.313,892.938l-160.093,-0l0,-481.65l160.093,0l0,481.65Zm-80.036,-547.448l-1.072,-0c-53.7,-0 -88.442,-36.993 -88.442,-83.209c-0,-47.245 35.814,-83.209 90.565,-83.209c54.773,-0 88.464,35.964 89.536,83.209c0,46.216 -34.785,83.209 -90.587,83.209Zm657.357,547.448l-160.115,-0l-0,-257.735c-0,-64.725 -23.162,-108.902 -81.087,-108.902c-44.223,0 -70.558,29.786 -82.16,58.568c-4.223,10.274 -5.255,24.642 -5.255,39.052l0,268.994l-160.092,-0c0,-0 2.105,-436.506 0,-481.65l160.092,0l0,68.176c21.275,-32.811 59.322,-79.542 144.309,-79.542c105.321,0 184.308,68.861 184.308,216.815l-0,276.224Z" fill="currentColor" />
</svg>