<?xml version="1.0" encoding="UTF-8" standalone="no"?>
<!DOCTYPE svg PUBLIC "-//W3C//DTD SVG 1.1//EN" "http://www.w3.org/Graphics/SVG/1.1/DTD/svg11.dtd">
<svg width="100%" height="100%" viewBox="0 0 1067 1067" version="1.1" xmlns="http://www.w3.org/2000/svg" xmlns:xlink="http://www.w3.org/1999/xlink" xml:space="preserve" xmlns:serif="http://www.serif.com/" style="fill-rule:evenodd;clip-rule:evenodd;stroke-linejoin:round;stroke-miterlimit:2;">
    <path d="M936.349,-0c71.927,-0 130.318,58.396 130.318,130.321l-0,806.024c-0,71.927 -58.395,130.322 -130.318,130.322l-806.028,-0c-71.925,-0 -130.321,-58.395 -130.321,-130.322l-0,-806.024c-0,-71.925 58.394,-130.321 130.321,-130.321l806.028,-0Zm-529.017,884.465c283.206,0 438.06,-234.67 438.06,-438.057c-0,-6.704 -0,-13.41 -0.32,-19.796c30.015,-21.71 56.194,-48.85 76.95,-79.82c-27.458,12.133 -57.153,20.435 -88.442,24.266c31.928,-19.158 56.19,-49.171 67.686,-85.25c-29.69,17.561 -62.581,30.333 -97.7,37.356c-28.097,-30.012 -68.01,-48.531 -112.389,-48.531c-84.93,0 -153.895,68.967 -153.895,153.896c0,12.133 1.279,23.947 4.151,35.12c-128.034,-6.383 -241.381,-67.687 -317.37,-160.918c-13.092,22.669 -20.754,49.169 -20.754,77.267c-0,53.32 27.139,100.575 68.645,128.033c-25.222,-0.639 -48.849,-7.661 -69.604,-19.157l0,1.917c0,74.713 53.003,136.65 123.565,151.019c-12.771,3.511 -26.5,5.428 -40.55,5.428c-9.898,0 -19.475,-0.959 -29.054,-2.872c19.477,61.303 76.308,105.682 143.677,106.96c-52.681,41.187 -119.092,65.773 -191.25,65.773c-12.452,-0 -24.585,-0.639 -36.719,-2.237c67.369,44.063 148.467,69.603 235.313,69.603Z" style="fill:#151313;" />
</svg>